<?xml version="1.0" encoding="iso-8859-1"?>
<!-- Generator: Adobe Illustrator 19.0.0, SVG Export Plug-In . SVG Version: 6.00 Build 0)  -->
<svg version="1.1" id="Capa_1" xmlns="http://www.w3.org/2000/svg" xmlns:xlink="http://www.w3.org/1999/xlink" x="0px" y="0px"
	 viewBox="0 0 191.259 191.259" style="enable-background:new 0 0 191.259 191.259;" xml:space="preserve">
<g>
	<circle style="fill:#1c3766;" cx="59.768" cy="83.634" r="3.985"/>
	<circle style="fill:#1c3766;" cx="83.676" cy="83.634" r="3.985"/>
	<circle style="fill:#1c3766;" cx="107.583" cy="83.634" r="3.985"/>
	<circle style="fill:#1c3766;" cx="35.861" cy="107.541" r="3.984"/>
	<circle style="fill:#1c3766;" cx="59.768" cy="107.541" r="3.984"/>
	<circle style="fill:#1c3766;" cx="83.676" cy="107.541" r="3.984"/>
	<circle style="fill:#1c3766;" cx="107.583" cy="107.541" r="3.984"/>
	<circle style="fill:#1c3766;" cx="155.398" cy="107.541" r="3.984"/>
	<circle style="fill:#1c3766;" cx="131.49" cy="83.634" r="3.985"/>
	<circle style="fill:#1c3766;" cx="155.398" cy="83.634" r="3.985"/>
	<circle style="fill:#1c3766;" cx="35.861" cy="131.449" r="3.985"/>
	<circle style="fill:#1c3766;" cx="59.768" cy="131.449" r="3.985"/>
	<circle style="fill:#1c3766;" cx="83.676" cy="131.449" r="3.985"/>
	<circle style="fill:#1c3766;" cx="107.583" cy="131.449" r="3.985"/>
	<circle style="fill:#1c3766;" cx="131.49" cy="131.449" r="3.985"/>
	<circle style="fill:#1c3766;" cx="155.398" cy="131.449" r="3.985"/>
	<circle style="fill:#1c3766;" cx="35.861" cy="155.356" r="3.985"/>
	<circle style="fill:#1c3766;" cx="59.768" cy="155.356" r="3.985"/>
	<circle style="fill:#1c3766;" cx="83.676" cy="155.356" r="3.985"/>
	<circle style="fill:#1c3766;" cx="107.583" cy="155.356" r="3.985"/>
	<path style="fill:#1c3766;" d="M131.49,119.495c6.603,0,11.954-5.351,11.954-11.954s-5.351-11.954-11.954-11.954
		c-6.603,0-11.954,5.351-11.954,11.954S124.887,119.495,131.49,119.495z M131.49,103.557c2.199,0,3.985,1.786,3.985,3.984
		s-1.786,3.984-3.985,3.984s-3.984-1.786-3.984-3.984S129.292,103.557,131.49,103.557z"/>
	<path style="fill:#1c3766;" d="M175.321,15.98h-7.969v-3.985c0-6.601-5.354-11.954-11.954-11.954
		c-6.603,0-11.954,5.352-11.954,11.954v3.985h-95.63v-3.985c0-6.601-5.354-11.954-11.954-11.954
		c-6.603,0-11.954,5.352-11.954,11.954v3.985h-7.969C7.136,15.98,0,23.116,0,31.918v15.854v7.969v119.537
		c0,8.802,7.136,15.938,15.938,15.938h159.382c8.802,0,15.938-7.136,15.938-15.938V55.742v-7.969V31.918
		C191.259,23.116,184.123,15.98,175.321,15.98z M151.413,23.949V15.98v-3.985c0-2.201,1.782-3.985,3.985-3.985
		c2.198,0,3.984,1.784,3.984,3.985v3.985v7.969v3.984c0,2.2-1.786,3.985-3.984,3.985c-2.202,0-3.985-1.784-3.985-3.985V23.949z
		 M31.876,23.949V15.98v-3.985c0-2.201,1.782-3.985,3.985-3.985c2.199,0,3.985,1.784,3.985,3.985v3.985v7.969v3.984
		c0,2.2-1.786,3.985-3.985,3.985c-2.202,0-3.985-1.784-3.985-3.985V23.949z M183.29,175.279c0,4.399-3.564,7.969-7.969,7.969H15.938
		c-4.405,0-7.969-3.57-7.969-7.969V55.742H183.29V175.279z M183.29,47.773H7.969V31.918c0-4.403,3.564-7.969,7.969-7.969h7.969
		v3.984c0,6.601,5.35,11.954,11.954,11.954c6.6,0,11.954-5.352,11.954-11.954v-3.984h95.63v3.984c0,6.601,5.35,11.954,11.954,11.954
		c6.599,0,11.954-5.352,11.954-11.954v-3.984h7.969c4.405,0,7.969,3.566,7.969,7.969V47.773z"/>
</g>
</svg>
