<?xml version="1.0" encoding="UTF-8"?>
<svg width="640" height="480" xmlns="http://www.w3.org/2000/svg" xmlns:svg="http://www.w3.org/2000/svg">
 <title>champagne glass black</title>
 <metadata id="metadata3852">image/svg+xmlchampagne glasschampagnestemwareflute glasscheerscelebrationhappy timesparty2010-12-25Srinivasbala from netalloy.com</metadata>
 <g>
  <title>Layer 1</title>
  <path d="m309.301025,67.649803l-81.174026,-22.938072c-23.296188,74.85276 -52.698013,131.088699 -24.949432,217.257568c-3.018204,67.778656 -24.778961,134.832977 -39.154892,135.042725c-19.077347,0.277954 -41.545891,-5.119873 -40.590111,3.871674l-0.4505,6.8992c9.283958,7.384796 23.450142,14.33255 51.311363,24.057709c32.135849,6.541656 43.116455,5.633392 57.244415,5.833862l2.632767,-7.611115c3.4935,-10.097137 -8.460449,-11.67392 -33.974045,-23.953369c-16.413559,-7.899353 3.346786,-85.891907 31.178024,-140.743286c60.910477,-56.305176 63.298386,-141.278549 77.926437,-197.716911l0,0l0,0.000015z" id="path3019" stroke-miterlimit="4" stroke-width="7" stroke="#000000" fill="none"/>
  <path id="path3794" d="m397.996002,25.278601l-87.05899,22.062899c18.366974,81.422508 21.194977,148.928505 92.653992,213.610497c33.299011,64.10199 48.932007,137.515991 35.786987,145.363007c-17.442993,10.411987 -41.033997,17.397003 -35.36499,25.178986l3.257996,6.60202c12.48999,1.865997 29.252014,0.730988 60.119019,-5.134003c33.113983,-11.076019 42.755981,-17.759003 55.888977,-25.095001l-1.622986,-8.420013c-2.153992,-11.169983 -14.016998,-6.259979 -44.080017,-4c-19.339996,1.45401 -42.638977,-80.97998 -46.177002,-146.372986c26.190002,-84.345001 -16.845001,-163.967308 -33.402985,-223.795296l0,-0.000099l0,0l0,0l0,-0.00001z" stroke-miterlimit="4" stroke-width="7" stroke="#000000" fill="none"/>
  <path id="svg_6" stroke-width="0" stroke="#000000" fill="#000000"/>
 </g>
</svg>