<?xml version="1.0" encoding="iso-8859-1"?>
<!-- Generator: Adobe Illustrator 19.0.0, SVG Export Plug-In . SVG Version: 6.00 Build 0)  -->
<svg version="1.1" id="Capa_1" xmlns="http://www.w3.org/2000/svg" xmlns:xlink="http://www.w3.org/1999/xlink" x="0px" y="0px"
	 viewBox="0 0 404.48 404.48" style="enable-background:new 0 0 404.48 404.48;" xml:space="preserve">
<g>
	<g>
		<path d="M371.361,380.416c-0.512-2.56-3.584-4.608-6.144-3.584l-30.72,7.68l-26.624-116.224
			c26.112-13.312,28.672-77.312,15.36-135.168c-4.608-19.968-17.92-69.632-26.112-88.064c-1.024-2.56-3.584-4.096-6.144-3.584
			l-77.312,18.944c-2.56,0.512-4.096,2.56-4.096,5.12c1.024,20.48,10.752,70.656,15.36,90.624
			c12.288,52.224,34.304,95.232,57.344,109.056c5.12,3.072,10.24,4.608,15.36,4.608l26.624,116.224l-32.768,8.192
			c-2.56,0.512-4.608,3.584-3.584,6.144c0.512,2.56,2.56,4.096,5.12,4.096c0.512,0,1.024,0,1.024,0l73.728-17.92
			C370.337,386.048,372.385,382.976,371.361,380.416z M220.321,69.632l68.608-16.896c6.656,17.92,16.384,52.736,21.504,73.728
			c-3.072,3.072-6.656,5.632-12.288,7.168c-9.216,2.048-14.848-0.512-21.504-3.584c-7.168-3.072-15.36-7.168-28.16-4.096
			c-8.192,2.048-13.824,6.144-17.92,10.24C226.977,114.688,221.857,86.016,220.321,69.632z M300.705,260.096
			c-3.584,1.024-8.192,0-12.8-3.072c-19.968-12.288-41.472-53.76-52.736-102.4c-0.512-1.536-1.024-3.584-1.024-5.632
			c4.608-5.632,8.704-10.752,17.408-12.8c9.216-2.048,14.848,0.512,21.504,3.584c7.168,3.072,15.36,7.168,28.16,4.096
			c5.12-1.536,9.216-3.584,12.8-5.632C328.353,204.288,318.625,255.488,300.705,260.096z"
			fill="#fff" />
	</g>
</g>
<g>
	<g>
		<path d="M195.233,66.048c0-2.56-1.536-4.096-3.584-4.608l-52.224-9.728c-0.512,0-0.512,0-1.024,0s-1.024-0.512-1.024-0.512
			l-52.224-9.728c-2.048-0.512-4.608,0.512-5.632,2.56c-2.048,4.608-53.248,110.08-24.576,166.4
			c8.192,16.384,22.528,27.136,42.496,31.744L70.817,381.44l-31.744-6.144c-2.56-0.512-5.632,1.536-6.144,4.096
			c-0.512,2.56,1.536,5.632,4.096,6.144l73.216,13.824c0.512,0,0.512,0,1.024,0c2.56,0,4.608-1.536,5.12-4.096
			c0.512-2.56-1.536-5.632-4.096-6.144L80.545,384l26.112-139.264c3.584,0.512,7.68,1.024,10.752,1.024
			c15.872,0,29.184-5.12,40.448-15.36C204.961,187.904,195.233,71.168,195.233,66.048z M86.689,52.224l48.64,9.216
			c0.512,0,0.512,0,1.024,0c0.512,0,0.512,0.512,1.024,0.512l48.64,9.216c0,5.12,0.512,16.384,0,30.72
			c-5.632,1.024-12.288,2.048-22.016,0c-13.312-2.56-19.456-7.168-26.624-12.288c-7.168-5.632-14.848-11.264-30.72-14.336
			c-13.824-2.56-22.528-1.024-30.208,1.024C80.545,65.024,84.641,56.832,86.689,52.224z M151.713,222.72
			c-12.288,11.264-27.648,14.848-46.592,11.264h-0.512h-0.512c0,0,0,0-0.512,0c0,0,0,0-0.512,0
			c-18.944-3.584-31.744-12.288-39.424-27.648c-15.872-31.744-3.584-83.456,9.216-118.784v0.512l3.072-1.024
			c8.192-2.048,15.872-4.096,29.184-1.536c13.312,2.56,19.456,7.168,26.624,12.288c7.168,5.632,14.848,11.264,30.72,14.336
			c5.12,1.024,9.216,1.536,13.312,1.536s7.68-0.512,10.752-1.024C184.481,149.504,177.313,199.68,151.713,222.72z"
			fill="#fff" />
	</g>
</g>
<g>
	<g>
		<path d="M207.521,0c-2.56,0-5.12,2.048-5.12,5.12l-0.512,26.624c0,3.072,2.048,5.12,5.12,5.12c2.56,0,5.12-2.048,5.12-5.12
			l0.512-26.624C212.641,2.048,210.593,0,207.521,0z"
			fill="#fff" />
	</g>
</g>
<g>
	<g>
		<path d="M253.601,6.656c-2.56-1.536-5.632-0.512-7.168,1.536l-13.824,23.04c-1.536,3.072-0.512,6.144,1.536,7.68
			c1.024,0.512,1.536,0.512,2.56,0.512c1.536,0,3.584-1.024,4.608-2.56l13.824-23.04C256.673,11.264,255.649,8.192,253.601,6.656z"
			fill="#fff" />
	</g>
</g>
<g>
	<g>
		<path d="M181.409,31.744l-14.336-23.04c-1.536-2.56-4.608-3.072-7.168-1.536c-2.56,1.536-3.072,4.608-1.536,7.168l14.848,23.04
			c1.024,1.536,2.56,2.56,4.096,2.56c1.024,0,2.048,0,2.56-1.024C182.433,37.376,182.945,34.304,181.409,31.744z"
			fill="#fff" />
	</g>
</g>
</svg>
