<?xml version="1.0" encoding="UTF-8" standalone="no" ?>
<svg    xmlns="http://www.w3.org/2000/svg"
   width="297mm"
   height="140mm"
   viewBox="0 0 297 140"
   version="1.1"
   id="svg8">
  <g
     id="layer1"
     transform="translate(0,-87)">
      <path
         style="fill:#ecece7;stroke-width:0.16064519"
         d="m 107.62345,197.65694 c -1.7829,-0.56529 -2.9227,-1.94178 -3.51371,-4.24338 -0.32442,-1.26341 -0.32488,-4.41534 -8e-4,-5.83824 0.50499,-2.21754 1.87754,-3.89579 3.5946,-4.39522 1.4884,-0.43292 4.44083,-0.13171 5.36942,0.54779 0.27614,0.20207 0.27817,0.2522 0.0348,0.8605 l -0.25845,0.64593 -1.15929,-0.38946 c -1.6116,-0.54141 -3.205,-0.45309 -4.17925,0.23164 -1.45923,1.02558 -2.13335,3.7139 -1.738,6.93094 0.24038,1.956 0.77474,3.10966 1.76123,3.80241 0.65299,0.45857 0.78756,0.48891 2.16776,0.48881 1.27116,-9e-5 1.60067,-0.0606 2.41973,-0.44408 0.52149,-0.24419 0.95867,-0.42487 0.9715,-0.40151 0.17245,0.31391 0.40968,0.99249 0.40968,1.17184 0,0.30404 -1.30748,0.95299 -2.37742,1.18001 -1.21702,0.25822 -2.37492,0.20929 -3.50173,-0.14798 z m 12.4656,0.0245 c -1.31487,-0.46626 -2.27234,-1.57233 -2.83562,-3.27569 -0.39903,-1.20666 -0.43733,-1.54024 -0.44671,-3.89016 -0.008,-2.06251 0.0482,-2.7598 0.28531,-3.52936 0.58668,-1.90366 1.39877,-3.04 2.56397,-3.58771 2.03781,-0.95788 4.44091,-0.39516 5.71582,1.33844 1.95214,2.6545 1.8398,9.21628 -0.20041,11.70609 -1.1282,1.37682 -3.24052,1.89152 -5.08236,1.23839 z m 3.06866,-1.66375 c 1.4647,-0.9699 2.14741,-4.65972 1.51672,-8.19745 -0.4118,-2.30994 -1.50176,-3.44991 -3.14738,-3.29179 -0.99406,0.0955 -1.64773,0.58615 -2.14955,1.61344 -0.60049,1.22927 -0.77648,2.47769 -0.69581,4.93596 0.0957,2.91684 0.57508,4.25381 1.79107,4.9953 0.71532,0.43619 1.98199,0.41002 2.68495,-0.0555 z m 6.89134,-5.58242 v -7.22904 l 1.16468,3.3e-4 1.16467,3.2e-4 1.10955,3.09206 c 0.61025,1.70064 1.15319,3.14343 1.20652,3.20621 0.0533,0.0628 0.61215,-1.31074 1.2418,-3.05226 l 1.14483,-3.16633 1.14268,-0.0472 1.14269,-0.0472 v 7.23607 7.23607 h -0.8013 -0.80129 l -0.0421,-6.06435 -0.0421,-6.06436 -0.74289,2.00806 c -0.40858,1.10444 -0.87846,2.39066 -1.04416,2.85828 l -0.30127,0.8502 -0.8633,-0.047 -0.86331,-0.047 -0.98415,-2.73097 -0.98414,-2.73097 -0.0421,5.98404 -0.0421,5.98403 h -0.88159 -0.88159 z m 13.81548,0 v -7.22904 h 2.38415 c 2.62036,0 3.4972,0.17226 4.5339,0.89069 1.9187,1.32967 1.90488,4.77188 -0.0248,6.16971 -0.94336,0.68337 -2.04451,0.97186 -3.70953,0.97186 h -1.41665 v 3.21291 3.2129 h -0.88355 -0.88355 z m 5.18597,-1.02202 c 0.71747,-0.30368 1.09986,-0.78281 1.24108,-1.55509 0.22809,-1.24733 -0.25429,-2.26612 -1.34051,-2.8311 -0.25064,-0.13038 -1.10005,-0.27879 -1.88758,-0.32981 l -1.43186,-0.0928 v 2.51378 2.51378 h 1.45097 c 0.86427,0 1.65998,-0.0885 1.9679,-0.21879 z m 5.77421,8.05887 c 0.0425,-0.11519 1.11338,-3.37213 2.37972,-7.23766 l 2.30242,-7.02823 h 1.06247 1.06246 l 0.35119,1.16468 c 0.19315,0.64057 1.24752,3.89364 2.34305,7.22904 l 1.99187,6.06435 h -0.9195 -0.91951 l -0.78756,-2.49 -0.78756,-2.49 h -2.36602 -2.36601 l -0.78379,2.44984 -0.78378,2.44984 -0.92838,0.0488 c -0.71024,0.0373 -0.91021,-4.8e-4 -0.85107,-0.16065 z m 7.47814,-6.59508 c -0.0386,-0.11044 -0.41891,-1.3213 -0.84506,-2.69081 -0.42614,-1.3695 -0.81935,-2.54202 -0.87379,-2.60559 -0.0544,-0.0636 -0.50319,1.14728 -0.99722,2.6908 l -0.89822,2.80641 h 1.84227 c 1.40419,0 1.82557,-0.0478 1.77202,-0.20081 z m 6.62233,-0.44177 v -7.22904 h 1.0213 1.0213 l 2.55306,5.57259 2.55305,5.5726 0.0422,-5.5726 0.0422,-5.57259 h 0.88148 0.88146 v 7.23638 7.23637 l -1.05104,-0.0475 -1.05103,-0.0475 -2.52332,-5.54226 -2.52332,-5.54226 -0.0423,5.58242 -0.0422,5.58242 h -0.88148 -0.88146 z m 16.54645,4.09741 V 191.401 l -2.24639,-4.05725 -2.2464,-4.05724 0.8216,-0.0493 c 0.45188,-0.0271 0.91038,-0.0152 1.01888,0.0264 0.10848,0.0416 0.93539,1.45541 1.83755,3.14171 0.90217,1.6863 1.68949,3.06391 1.74962,3.06136 0.0601,-0.003 0.84254,-1.39414 1.73865,-3.09242 l 1.62933,-3.08777 0.98115,-0.0478 c 0.53966,-0.0263 0.98118,-0.0103 0.98118,0.0356 0,0.0459 -1.01207,1.92585 -2.24904,4.17763 l -2.24903,4.09416 v 3.05907 3.05907 h -0.88355 -0.88355 z M 19.939418,192.34636 c -2.338847,-0.80433 -4.10013,-2.84505 -4.876523,-5.65021 -0.257282,-0.92958 -0.276763,-3.07491 -0.276763,-30.47836 V 126.7394 l 0.375731,-1.20484 c 0.983376,-3.15335 3.096765,-5.16618 5.907575,-5.62649 0.592792,-0.0971 19.965268,-0.15522 51.91041,-0.1558 l 50.964682,-9.4e-4 v 1.52613 1.52613 l -51.366295,0.004 c -49.399351,0.003 -51.390901,0.0148 -52.008876,0.29703 -0.909522,0.41543 -1.647959,1.22049 -2.229277,2.43041 l -0.501691,1.0442 v 29.63903 29.63904 l 0.362737,0.8963 c 0.449354,1.11032 1.30941,2.13516 2.184686,2.60327 l 0.66548,0.35591 34.980488,0.0419 34.980487,0.042 v 1.44402 1.44402 l -35.06081,-0.005 c -34.843769,-0.005 -35.066699,-0.007 -36.012041,-0.33251 z m 185.773512,-1.10472 v -1.44544 l 35.06081,-0.0419 35.06081,-0.0419 0.64258,-0.34737 c 0.90814,-0.49093 1.59763,-1.26622 2.11985,-2.38359 l 0.45047,-0.96388 V 156.21788 126.4182 l -0.35806,-0.77584 c -0.54404,-1.17876 -1.2482,-1.96659 -2.16698,-2.42444 l -0.83127,-0.41424 h -51.62192 -51.62191 l 0.0462,-1.48596 0.0462,-1.48597 51.08516,-0.0433 c 35.00229,-0.0297 51.43266,0.01 52.18891,0.12494 2.33448,0.35591 4.27174,1.82922 5.32697,4.05125 1.11057,2.33855 1.0498,0.34551 1.00207,32.85947 l -0.0431,29.35412 -0.42645,1.16688 c -0.23454,0.64179 -0.65646,1.52535 -0.93761,1.96347 -0.75358,1.17436 -2.2453,2.48287 -3.32925,2.92038 l -0.92927,0.37508 -35.3821,0.0416 -35.3821,0.0416 z m -46.12606,-20.2531 c -2.62191,-0.39329 -4.74076,-1.78116 -6.01679,-3.94104 -0.92788,-1.57057 -1.28757,-4.65981 -0.78885,-6.77507 0.43717,-1.85415 1.87152,-4.24838 3.40225,-5.67902 1.82403,-1.70477 4.31959,-3.19481 6.83799,-4.08281 0.68475,-0.24144 1.245,-0.45657 1.245,-0.47806 0,-0.0215 -0.16007,-0.39164 -0.35572,-0.82255 -0.54017,-1.18975 -0.50074,-3.15124 0.0924,-4.59636 l 0.44405,-1.08191 -0.39368,-0.52454 c -1.04134,-1.38748 -1.70812,-3.41624 -1.71242,-5.21028 -0.002,-1.0054 0.099,-1.49911 0.30807,-1.49911 0.0635,0 0.45836,0.54137 0.87751,1.20303 0.41915,0.66167 1.30245,1.74339 1.96288,2.40383 l 1.20079,1.20079 0.78591,-0.48358 c 2.01031,-1.23696 5.05457,-1.97485 8.19602,-1.9866 2.49838,-0.009 3.44921,0.22007 4.71154,1.13681 2.42425,1.76056 1.53715,4.97183 -1.82894,6.62072 -1.75482,0.85959 -3.47893,1.2075 -5.45045,1.09985 -0.92909,-0.0507 -2.06877,-0.1982 -2.53264,-0.32771 l -0.84338,-0.23548 v 0.84411 c 0,1.16337 0.22453,1.32875 1.90311,1.40169 1.23406,0.0536 1.37162,0.094 1.72694,0.50711 0.63262,0.73545 0.42156,1.74914 -0.46268,2.22238 -0.65108,0.34844 -2.5992,0.77334 -3.55845,0.7761 -0.52433,0.001 -1.37012,-0.11419 -1.87953,-0.25712 l -0.9262,-0.25988 -1.04061,0.48697 c -3.08676,1.44447 -5.21437,3.76116 -6.37512,6.94168 -0.75707,2.07442 -0.90216,4.951 -0.32614,6.46604 0.54224,1.42619 1.7986,2.48308 3.21104,2.70123 2.30721,0.35635 5.51899,-1.17005 7.04571,-3.34847 0.88272,-1.25951 1.16386,-2.00369 1.16386,-3.0806 0,-0.75003 -0.0675,-0.97961 -0.37181,-1.26554 -0.92779,-0.87162 -2.61585,0.0638 -4.2514,2.35578 l -0.73834,1.03468 -0.22333,-0.62488 c -0.31406,-0.87875 -0.17018,-2.39499 0.33116,-3.49008 1.61795,-3.53407 6.38952,-4.09242 7.94283,-0.92945 0.36807,0.7495 0.44277,1.11075 0.43931,2.12464 -0.004,1.07786 -0.0733,1.36153 -0.59194,2.41089 -2.13589,4.32166 -8.52008,7.73781 -13.15995,7.04181 z m 17.77196,-26.50603 c 0.61835,-0.0894 1.4289,-0.30992 1.8012,-0.49015 0.71818,-0.34767 1.3316,-1.15146 1.3316,-1.74486 0,-0.92169 -1.2591,-1.77483 -2.61373,-1.77103 -1.57939,0.004 -3.866,1.01358 -5.41853,2.39136 l -0.88354,0.78409 1.12451,0.34112 c 0.96296,0.29211 2.44226,0.57759 3.29323,0.63553 0.13253,0.009 0.7469,-0.0567 1.36526,-0.14606 z M 52.652696,169.07647 c -3.225826,-0.87289 -5.249123,-2.81226 -6.270433,-6.01033 -0.378604,-1.18555 -0.360938,-4.63678 0.03094,-6.04512 0.794958,-2.85692 2.666856,-5.30572 4.86335,-6.36219 1.68972,-0.81272 3.329917,-1.11762 4.75034,-0.88304 1.425643,0.23544 2.452149,0.76025 3.312354,1.69346 2.948606,3.19886 1.580988,8.79571 -2.671147,10.93144 -1.058658,0.53173 -2.390744,0.79334 -3.325702,0.65313 l -0.743922,-0.11155 0.861306,-0.83208 c 2.042521,-1.9732 3.333188,-4.78659 3.329625,-7.25788 -0.0021,-1.46421 -0.379743,-2.31525 -1.296206,-2.92115 -0.576355,-0.38105 -0.850719,-0.45229 -1.739546,-0.45168 -0.871009,6.4e-4 -1.192163,0.0811 -1.839293,0.46083 -2.277156,1.33636 -3.636041,3.95625 -3.631808,7.00204 0.004,2.88784 1.052653,4.93699 3.021178,5.90368 0.814198,0.39983 1.086129,0.4482 2.519174,0.44809 1.457405,-1.1e-4 1.687622,-0.0428 2.481335,-0.46044 0.481185,-0.25317 1.302927,-0.86758 1.826095,-1.36536 1.491669,-1.41927 2.460824,-2.90523 4.863753,-7.45737 1.121663,-2.12489 1.119715,-2.12819 -0.681834,-1.15397 -0.543794,0.29407 -1.031754,0.49163 -1.084355,0.43903 -0.20077,-0.20077 -0.07594,-1.43541 0.208432,-2.06152 0.163359,-0.35967 0.577441,-0.88591 0.920182,-1.16944 0.612712,-0.50684 2.308606,-1.14855 3.035365,-1.14855 0.282878,0 0.530847,-0.25598 1.050428,-1.08435 1.319797,-2.10418 2.64952,-3.83223 4.115669,-5.34854 l 1.48249,-1.53321 -1.496536,0.0654 c -0.899311,0.0393 -2.354658,-0.0477 -3.646843,-0.21814 -3.077752,-0.40592 -5.267937,-0.38752 -6.487729,0.0545 -1.144181,0.41464 -1.84742,1.10447 -1.84742,1.81221 0,0.97063 0.508741,1.42894 1.767097,1.59194 l 0.722904,0.0936 -0.558193,0.35161 c -1.460052,0.91969 -3.334502,0.73854 -4.384556,-0.42375 -0.739035,-0.81802 -0.980223,-1.5949 -0.88057,-2.83635 0.202252,-2.51965 2.47881,-4.62049 5.758106,-5.31367 2.021826,-0.42737 4.076992,-0.14436 9.462956,1.30314 1.811274,0.48679 3.781765,0.93117 4.378867,0.98751 0.996706,0.0941 1.177536,0.0601 2.207337,-0.41458 1.936636,-0.89266 4.226643,-0.97973 4.656225,-0.17704 0.304129,0.56827 0.174845,1.00781 -0.479525,1.6303 -0.668506,0.63594 -1.867435,1.10577 -2.821707,1.10577 -0.427273,0 -0.684098,0.18111 -1.512242,1.0664 -0.548658,0.58651 -1.405062,1.61665 -1.903121,2.28919 -0.901409,1.21719 -3.240673,5.08974 -3.240673,5.36479 0,0.0797 0.73735,0.11871 1.646613,0.0871 1.57053,-0.0546 1.687438,-0.0837 2.530162,-0.62945 1.233347,-0.79871 2.111576,-1.10962 3.134354,-1.10962 h 0.878819 l -1.002554,1.35771 c -0.551405,0.74675 -1.79579,2.62724 -2.7653,4.17889 -0.969509,1.55164 -1.91703,3.01466 -2.105602,3.25115 l -0.342857,0.42999 -0.344237,-0.92006 c -0.379074,-1.01317 -0.475651,-3.11176 -0.179097,-3.89176 0.09083,-0.23889 0.145045,-0.44674 0.120484,-0.46189 -0.02456,-0.0152 -0.667967,0.002 -1.429792,0.0379 l -1.385135,0.0655 -1.586023,3.06557 c -3.706809,7.16479 -6.901885,10.73303 -10.851246,12.11862 -1.621612,0.56893 -3.77297,0.65398 -5.400741,0.21352 z m 48.239254,-0.3169 c -0.72402,-0.17473 -1.106809,-0.41964 -1.684841,-1.07799 -0.93605,-1.0661 -1.330582,-2.5173 -1.129445,-4.15443 0.06513,-0.53013 0.105705,-0.98074 0.09016,-1.00135 -0.01555,-0.0206 -0.406898,0.46057 -0.869678,1.0693 -1.039732,1.36764 -2.565971,2.92142 -3.502675,3.56589 -2.436101,1.67608 -4.707142,0.94176 -5.394295,-1.7442 l -0.215239,-0.84133 -0.876029,0.89269 c -1.085779,1.10644 -2.888265,2.3327 -4.120471,2.80322 -1.305888,0.49866 -2.898958,0.49928 -4.03174,0.002 -3.019496,-1.32667 -3.523933,-5.71207 -1.270065,-11.04148 1.02645,-2.4271 4.615056,-8.33355 6.634729,-10.92004 1.366063,-1.74944 3.461741,-3.84125 4.615754,-4.60724 1.717001,-1.13968 2.778967,-1.53685 4.19242,-1.56795 1.200848,-0.0264 1.295484,-0.003 1.646613,0.40508 0.480772,0.55893 0.503213,1.88727 0.05626,3.33004 -0.320429,1.03434 -1.441781,3.11815 -2.624141,4.87644 -1.893818,2.8163 -5.991319,7.17538 -8.833801,9.39774 l -1.541037,1.20484 -0.502021,1.50741 c -0.880777,2.64469 -0.688458,4.4714 0.515952,4.90068 1.028552,0.3666 2.82293,-0.58414 5.018887,-2.65923 1.419388,-1.34127 1.48914,-1.44041 1.921501,-2.73097 1.382311,-4.1261 4.995363,-9.54016 6.896767,-10.33462 1.16964,-0.48871 2.933333,-0.14845 3.71656,0.717 0.267347,0.29542 0.249737,0.34603 -0.431776,1.24095 -1.994569,2.61915 -4.717136,6.92569 -5.791634,9.16118 -0.46866,0.97504 -0.640565,1.54235 -0.657153,2.16871 -0.02136,0.80663 -0.0014,0.85068 0.4071,0.8979 0.685072,0.0792 1.568616,-0.48725 2.872317,-1.84143 2.204882,-2.29025 3.564259,-4.18663 5.855221,-8.16823 2.86543,-4.98001 2.85074,-4.96582 4.55687,-4.39806 1.2357,0.41122 1.95009,1.0333 1.94638,1.6949 -10e-4,0.25697 -0.5945,1.57006 -1.366,3.02445 -4.1046,7.7378 -4.7755,9.42397 -4.25227,10.68717 0.42687,1.03055 1.43081,0.77846 3.07435,-0.77197 1.71457,-1.61744 2.76752,-3.12616 3.10797,-4.45326 0.80065,-3.12108 3.08306,-7.4808 5.00073,-9.55212 1.0589,-1.14374 2.01873,-1.5436 3.37036,-1.4041 0.80941,0.0835 1.83064,0.52108 1.83064,0.78434 0,0.0662 -0.46222,0.82778 -1.02714,1.6923 -2.69964,4.13127 -5.39867,10.25635 -5.39867,12.25152 0,2.00131 1.58148,1.61741 4.332,-1.05157 1.69669,-1.6464 1.72506,-1.68976 2.2535,-3.44331 0.98898,-3.2818 3.65832,-6.97628 6.30144,-8.72147 3.20271,-2.11466 7.18027,-1.99547 8.3903,0.25142 l 0.30364,0.56383 1.79359,-2.99479 c 2.40165,-4.01007 3.08688,-5.06069 4.07466,-6.24738 0.95082,-1.1423 1.78719,-1.63704 2.97463,-1.75959 0.98613,-0.10178 2.11847,0.28387 1.96994,0.67091 -0.0504,0.13139 -1.1691,2.13784 -2.48597,4.45878 -4.34265,7.65381 -6.63404,12.1492 -8.31972,16.32219 -0.47596,1.17825 -0.9083,2.41068 -0.96075,2.73872 -0.19993,1.25029 0.82633,1.25115 2.5705,0.002 1.13631,-0.81369 3.06603,-3.11951 4.34091,-5.18694 0.84267,-1.36655 1.00435,-1.54367 1.40909,-1.54367 0.32346,0 0.5073,0.10998 0.62849,0.37597 0.14626,0.321 0.0694,0.5463 -0.52554,1.54119 -1.73798,2.9062 -4.93657,6.52253 -6.83258,7.72495 -1.13042,0.71689 -2.25064,1.02784 -3.19798,0.8877 -1.37298,-0.2031 -2.63434,-1.85056 -2.63434,-3.4407 0,-0.49797 -0.0165,-0.48758 -1.32533,0.83265 -1.43024,1.44275 -2.4784,2.07079 -3.97902,2.38416 -2.24124,0.46802 -4.52093,-1.25348 -4.91385,-3.71069 -0.0573,-0.35824 -0.15095,-0.65135 -0.20813,-0.65135 -0.0572,0 -0.64434,0.54916 -1.30479,1.22035 -2.25508,2.29177 -4.20918,3.39268 -5.75663,3.2432 -1.67017,-0.16134 -2.58377,-0.99297 -3.01629,-2.74566 l -0.26214,-1.06229 -0.73655,0.83688 c -1.75834,1.99786 -3.13229,2.98012 -4.75635,3.40039 -1.03281,0.26727 -1.19986,0.27579 -1.93415,0.0986 z m 24.50393,-4.37701 c 1.26416,-0.6317 3.28402,-2.52776 4.23342,-3.97395 1.06602,-1.62382 2.82245,-5.44992 2.93391,-6.39104 0.20564,-1.73627 -0.6603,-2.72786 -2.0251,-2.31896 -0.98474,0.29504 -2.56878,1.4586 -3.43274,2.52154 -1.98085,2.43704 -3.76336,6.62421 -3.84806,9.0392 -0.0315,0.89825 0.009,1.05341 0.34357,1.32532 0.50046,0.4064 0.59963,0.39523 1.795,-0.20211 z M 88.064707,151.07715 c 2.407261,-2.98168 5.320488,-7.64063 4.986501,-7.97461 -0.04793,-0.0479 -0.763339,0.58817 -1.589797,1.41356 -1.852914,1.85054 -4.672394,5.86608 -6.862693,9.77395 l -0.675295,1.20484 1.389732,-1.36549 c 0.764351,-0.75101 2.00255,-2.12453 2.751552,-3.05225 z m 106.631863,17.50117 c -1.05664,-0.40652 -2.05884,-1.27466 -2.80599,-2.43062 -1.3182,-2.03952 -1.4646,-4.51507 -0.44009,-7.44192 0.30889,-0.88244 0.61171,-1.72016 0.67291,-1.8616 0.0941,-0.21746 -0.0623,-0.27171 -1.01301,-0.35142 -0.61837,-0.0518 -1.28821,-0.18197 -1.48852,-0.28917 -0.31867,-0.17055 -0.39891,-0.14671 -0.64208,0.19078 -0.15286,0.21212 -0.98664,1.37334 -1.85287,2.58048 -3.12362,4.35294 -6.86835,9.17945 -7.34871,9.47157 -0.28187,0.17142 -0.62716,0.25726 -0.81216,0.2019 -0.94194,-0.28183 -2.08283,-2.07845 -2.58896,-4.07698 -0.20917,-0.82599 -0.24733,-1.5335 -0.18257,-3.38575 l 0.0819,-2.34156 -0.4627,-0.17465 c -0.29569,-0.11161 -0.46269,-0.2897 -0.46269,-0.4934 0,-0.17532 0.5456,-1.43532 1.21243,-2.8 0.66684,-1.36468 1.51625,-3.29859 1.88759,-4.29758 0.839,-2.25714 1.08568,-2.49198 2.36413,-2.25061 1.00466,0.18967 2.14039,0.83463 2.62925,1.4931 0.38288,0.5157 0.47705,0.17024 -1.08715,3.98781 -0.49293,1.20305 -1.10955,3.01464 -1.37026,4.02576 -0.47626,1.84716 -0.94421,5.67275 -0.75437,6.16742 0.0701,0.18273 1.05565,-1.32493 3.17226,-4.85289 1.6888,-2.81488 3.19907,-5.29993 3.35617,-5.52232 0.24521,-0.34712 0.26204,-0.52361 0.11895,-1.24723 -0.29785,-1.50641 0.34181,-3.55023 1.65582,-5.29062 0.87516,-1.15914 1.30171,-1.42476 1.89399,-1.17943 0.58244,0.24126 1.0329,0.85134 1.40764,1.90646 0.2842,0.80016 0.28471,0.87394 0.0132,1.90939 -0.15537,0.59239 -0.54484,1.68791 -0.86551,2.43448 -0.56548,1.3166 -0.57382,1.36434 -0.27709,1.58783 0.22574,0.17003 0.64282,0.21345 1.59109,0.16565 l 1.28516,-0.0648 1.52613,-1.52025 c 1.09792,-1.09368 1.84167,-1.68227 2.65065,-2.09767 3.97725,-2.04228 7.84527,-1.95259 9.0756,0.21042 0.81376,1.43068 0.29114,3.76145 -1.218,5.43188 -1.86907,2.06884 -5.2063,3.53086 -8.25109,3.61476 l -1.37361,0.0378 -0.20734,0.787 c -0.11406,0.43285 -0.18603,1.34238 -0.15996,2.02116 0.0525,1.36687 0.2943,1.85094 1.24921,2.50085 1.4283,0.97208 4.75958,0.0519 7.32581,-2.0235 0.82332,-0.66587 1.04938,-0.9936 2.06686,-2.99667 1.00986,-1.98803 2.88891,-5.14702 5.5753,-9.37294 0.94143,-1.48095 1.47252,-1.87797 2.30357,-1.72207 0.65829,0.1235 1.7741,0.91971 1.88541,1.34539 0.11459,0.43817 -0.29953,1.30495 -1.38113,2.89077 -0.50042,0.73373 -1.09325,1.69595 -1.3174,2.13827 -0.37589,0.7418 -0.2364,0.6283 1.79696,-1.46208 3.20206,-3.29184 4.64183,-4.30484 6.3368,-4.45854 1.41247,-0.12807 3.50522,0.75152 3.76957,1.58437 0.12303,0.38769 -0.36621,1.45036 -1.87698,4.07683 -3.42361,5.95196 -4.17225,7.51245 -4.21093,8.7774 -0.0655,2.14259 1.95809,1.80379 4.50431,-0.75412 0.9709,-0.97534 1.35998,-1.49008 1.48927,-1.9702 0.4673,-1.7354 2.35372,-5.72944 4.31785,-9.14192 l 1.13062,-1.96433 -0.99341,0.11501 c -0.54639,0.0633 -1.31872,0.11587 -1.71632,0.11691 l -0.7229,0.002 -0.0508,-0.71197 c -0.0731,-1.02344 0.35091,-1.98266 1.21097,-2.7397 0.80556,-0.70909 1.69688,-1.03743 3.57889,-1.31839 0.66266,-0.0989 1.28579,-0.25892 1.38473,-0.35555 0.0989,-0.0966 0.55665,-0.89859 1.01712,-1.78214 0.46049,-0.88354 0.95099,-1.73296 1.09001,-1.88758 0.73113,-0.81316 3.25901,0.38938 3.25366,1.5478 -0.002,0.18688 -0.18158,0.72649 -0.40161,1.19912 -0.22002,0.47264 -0.40004,0.91514 -0.40004,0.98334 0,0.0682 0.35238,0.17074 0.78306,0.22787 1.40388,0.18623 2.59049,1.39342 2.59049,2.63542 0,0.26434 -0.0931,0.51634 -0.2068,0.55998 -0.11374,0.0437 -1.10773,0.20038 -2.20887,0.3483 -1.10114,0.14793 -2.23228,0.31875 -2.51363,0.37961 -0.48981,0.10596 -0.63911,0.36664 -3.51368,6.13486 -1.65118,3.3133 -3.13787,6.41503 -3.30377,6.89273 -0.34183,0.98427 -0.39647,2.2656 -0.10887,2.5532 0.23755,0.23755 0.95224,0.24974 1.44628,0.0246 0.34601,-0.15764 0.36902,-0.26027 0.36902,-1.64661 0,-1.33025 0.0516,-1.58735 0.5143,-2.56422 0.98692,-2.08349 3.02511,-3.68701 4.98085,-3.91864 l 0.83362,-0.0987 2.77949,-3.63181 c 1.52871,-1.99749 3.12731,-4.15935 3.55242,-4.80412 0.89701,-1.36047 1.71447,-2.01413 2.86357,-2.2898 0.74025,-0.17758 2.61671,-0.14053 2.81278,0.0556 0.0431,0.0431 -0.10618,0.44278 -0.33186,0.8881 -0.64423,1.27134 -1.01489,2.90137 -1.45607,6.40322 -0.50884,4.03892 -0.78204,5.61818 -1.21845,7.04357 -1.40482,4.58814 -5.36453,7.62323 -9.94564,7.62323 -1.4562,0 -2.52609,-0.28759 -3.597,-0.96688 l -0.78228,-0.4962 -0.59654,0.39477 c -1.28829,0.85256 -3.24775,1.15306 -4.69373,0.71984 -0.7911,-0.23702 -1.65857,-1.18198 -1.91989,-2.09138 -0.10948,-0.381 -0.21982,-0.72051 -0.24521,-0.75447 -0.0254,-0.0339 -0.63061,0.48808 -1.34493,1.16007 -2.98339,2.80655 -6.06564,3.32124 -7.83716,1.30869 -0.72766,-0.82665 -0.99598,-1.61256 -0.99272,-2.90759 0.005,-2.01155 1.12395,-5.19122 2.81995,-8.01362 0.58401,-0.97191 1.32331,-2.23446 1.6429,-2.80567 l 0.58105,-1.03857 -0.47491,0.34048 c -0.95671,0.68588 -3.21454,2.89803 -4.35233,4.26426 -1.5237,1.8296 -3.90366,5.19837 -5.28728,7.484 -1.48269,2.4493 -1.69026,2.66137 -2.49871,2.55293 -0.78207,-0.1049 -1.6331,-0.7305 -2.10198,-1.54519 l -0.35184,-0.61133 -1.29493,0.96415 c -3.0948,2.30426 -6.33944,3.19898 -8.53614,2.35385 z m 42.80034,-3.04612 c 0.96201,-0.43653 1.82893,-1.15245 2.49609,-2.06131 1.31453,-1.79074 1.89182,-3.57586 2.26764,-7.01213 0.13529,-1.23697 0.28921,-2.50205 0.34203,-2.81129 0.1221,-0.71479 0.0858,-0.6793 -1.86262,1.82308 l -1.48208,1.9034 0.43938,0.4586 c 0.84491,0.88191 0.63159,2.82461 -0.41408,3.77092 -0.30659,0.27747 -0.345,0.27261 -1.10203,-0.13942 -0.43141,-0.23479 -0.84688,-0.42677 -0.92327,-0.42661 -0.0764,1.5e-4 -0.35504,0.34353 -0.61922,0.76306 -0.26417,0.41953 -0.93641,1.32419 -1.49386,2.01035 -0.55745,0.68617 -0.96517,1.32585 -0.90605,1.42151 0.38826,0.62822 2.17253,0.79243 3.25807,0.29984 z m -2.55742,-4.09344 c 0.002,-0.0883 -0.28454,0.14379 -0.63574,0.51588 -0.35122,0.37208 -0.63837,0.76968 -0.63813,0.88355 0,0.23811 1.26956,-1.15605 1.27387,-1.39943 z m -36.71991,-3.38855 c 1.68384,-0.67633 3.05504,-1.54591 4.13628,-2.62312 1.29197,-1.28714 1.75061,-2.12765 1.75061,-3.2082 0,-1.07803 -0.32656,-1.18098 -1.66047,-0.52351 -1.65662,0.81654 -3.96437,3.35307 -5.33737,5.86652 -0.68638,1.25647 -0.74135,1.23231 1.11095,0.48831 z m -79.33675,-11.93137 c -0.35418,-0.1609 -0.87828,-0.55943 -1.16468,-0.88562 -0.45929,-0.5231 -0.52014,-0.70137 -0.51578,-1.51118 0.006,-1.14293 0.55032,-2.53139 1.17249,-2.9916 0.96121,-0.71098 3.67749,-0.1226 4.37939,0.94864 0.35793,0.54627 0.48113,1.95947 0.23566,2.70325 -0.56036,1.69791 -2.44137,2.49322 -4.10708,1.73651 z m 19.35912,-24.35944 v -4.57839 h -1.60645 -1.60645 c 0,-0.37484 0,-0.74967 0,-1.12451 h 3.77516 3.77516 v 0.56225 0.56226 h -1.60645 -1.60645 v 4.57839 4.57839 h -0.56226 -0.56226 z m 6.62436,-0.5221 0.0445,-5.19854 0.60031,-0.002 0.60242,2.1e-4 v 2.09809 2.09808 h 1.76709 1.7671 v -2.08839 -2.08838 c 0.37484,0 0.74968,0 1.12452,0 v 5.14064 5.14065 H 150.21 149.64774 v -2.49 -2.49 h -1.7671 -1.76709 v 2.49 2.49 h -0.64484 -0.64484 z m 9.44016,-0.044 v -5.14453 c 1.8203,-0.0164 3.6615,-0.0138 5.48184,-0.0125 -0.003,0.38172 -0.0122,0.763 2e-5,1.14442 h -2.09856 -2.09857 v 1.52613 1.52613 h 1.92774 1.92775 v 0.56226 0.56226 h -1.92775 -1.92774 v 1.92294 1.92294 l 2.04823,0.045 2.04822,0.045 0.0503,0.5221 0.0503,0.5221 h -2.74114 -2.74115 z"
         id="path4636" />
  </g>
</svg>